<svg width="210" height="210" viewBox="0 0 210 210" fill="none" xmlns="http://www.w3.org/2000/svg">
<g clip-path="url(#clip0_79_253)">
<path d="M0 0H70V10H0V0ZM90 0H100V10H90V0ZM110 0H130V10H110V0ZM140 0H210V10H140V0ZM0 10H10V20H0V10ZM60 10H70V20H60V10ZM90 10H110V20H90V10ZM120 10H130V20H120V10ZM140 10H150V20H140V10ZM200 10H210V20H200V10ZM0 20H10V30H0V20ZM20 20H50V30H20V20ZM60 20H70V30H60V20ZM80 20H100V30H80V20ZM140 20H150V30H140V20ZM160 20H190V30H160V20ZM200 20H210V30H200V20ZM0 30H10V40H0V30ZM20 30H50V40H20V30ZM60 30H70V40H60V30ZM80 30H90V40H80V30ZM120 30H130V40H120V30ZM140 30H150V40H140V30ZM160 30H190V40H160V30ZM200 30H210V40H200V30ZM0 40H10V50H0V40ZM20 40H50V50H20V40ZM60 40H70V50H60V40ZM90 40H130V50H90V40ZM140 40H150V50H140V40ZM160 40H190V50H160V40ZM200 40H210V50H200V40ZM0 50H10V60H0V50ZM60 50H70V60H60V50ZM90 50H100V60H90V50ZM120 50H130V60H120V50ZM140 50H150V60H140V50ZM200 50H210V60H200V50ZM0 60H70V70H0V60ZM80 60H90V70H80V60ZM100 60H110V70H100V60ZM120 60H130V70H120V60ZM140 60H210V70H140V60ZM100 70H130V80H100V70ZM30 80H50V90H30V80ZM60 80H80V90H60V80ZM90 80H120V90H90V80ZM170 80H190V90H170V80ZM0 90H20V100H0V90ZM50 90H60V100H50V90ZM90 90H100V100H90V90ZM110 90H130V100H110V90ZM140 90H170V100H140V90ZM180 90H190V100H180V90ZM10 100H30V110H10V100ZM40 100H50V110H40V100ZM60 100H100V110H60V100ZM110 100H120V110H110V100ZM140 100H160V110H140V100ZM170 100H180V110H170V100ZM190 100H210V110H190V100ZM20 110H30V120H20V110ZM70 110H90V120H70V110ZM140 110H170V120H140V110ZM180 110H200V120H180V110ZM0 120H20V130H0V120ZM30 120H80V130H30V120ZM90 120H120V130H90V120ZM150 120H180V130H150V120ZM190 120H200V130H190V120ZM80 130H90V140H80V130ZM100 130H120V140H100V130ZM130 130H140V140H130V130ZM170 130H200V140H170V130ZM0 140H70V150H0V140ZM80 140H110V150H80V140ZM170 140H190V150H170V140ZM0 150H10V160H0V150ZM60 150H70V160H60V150ZM90 150H100V160H90V150ZM120 150H140V160H120V150ZM170 150H210V160H170V150ZM0 160H10V170H0V160ZM20 160H50V170H20V160ZM60 160H70V170H60V160ZM80 160H90V170H80V160ZM100 160H110V170H100V160ZM120 160H130V170H120V160ZM160 160H180V170H160V160ZM190 160H210V170H190V160ZM0 170H10V180H0V170ZM20 170H50V180H20V170ZM60 170H70V180H60V170ZM80 170H90V180H80V170ZM100 170H130V180H100V170ZM140 170H150V180H140V170ZM160 170H170V180H160V170ZM180 170H190V180H180V170ZM0 180H10V190H0V180ZM20 180H50V190H20V180ZM60 180H70V190H60V180ZM130 180H170V190H130V180ZM180 180H210V190H180V180ZM0 190H10V200H0V190ZM60 190H70V200H60V190ZM90 190H100V200H90V190ZM110 190H150V200H110V190ZM170 190H210V200H170V190ZM0 200H70V210H0V200ZM90 200H100V210H90V200ZM150 200H180V210H150V200Z" fill="#1547FC"/>
</g>
<defs>
<clipPath id="clip0_79_253">
<rect width="210" height="210" rx="30" fill="white"/>
</clipPath>
</defs>
</svg>
